<?xml version="1.0" encoding="UTF-8" standalone="no"?>
<!-- Created with Inkscape (http://www.inkscape.org/) -->

<svg
   xmlns:dc="http://purl.org/dc/elements/1.1/"
   xmlns:cc="http://creativecommons.org/ns#"
   xmlns:rdf="http://www.w3.org/1999/02/22-rdf-syntax-ns#"
   xmlns:svg="http://www.w3.org/2000/svg"
   xmlns="http://www.w3.org/2000/svg"
   xmlns:sodipodi="http://sodipodi.sourceforge.net/DTD/sodipodi-0.dtd"
   xmlns:inkscape="http://www.inkscape.org/namespaces/inkscape"
   width="740.06104"
   height="300.99997"
   id="svg2"
   version="1.1"
   inkscape:version="0.48.4 r9939"
   sodipodi:docname="Novo documento 1">
  <defs
     id="defs4" />
  <sodipodi:namedview
     id="base"
     pagecolor="#ffffff"
     bordercolor="#666666"
     borderopacity="1.0"
     inkscape:pageopacity="0.0"
     inkscape:pageshadow="2"
     inkscape:zoom="0.98994949"
     inkscape:cx="412.61532"
     inkscape:cy="204.75716"
     inkscape:document-units="px"
     inkscape:current-layer="layer1"
     showgrid="false"
     fit-margin-top="0"
     fit-margin-left="0"
     fit-margin-right="0"
     fit-margin-bottom="0"
     inkscape:window-width="1360"
     inkscape:window-height="721"
     inkscape:window-x="0"
     inkscape:window-y="22"
     inkscape:window-maximized="1" />
  <metadata
     id="metadata7">
    <rdf:RDF>
      <cc:Work
         rdf:about="">
        <dc:format>image/svg+xml</dc:format>
        <dc:type
           rdf:resource="http://purl.org/dc/dcmitype/StillImage" />
        <dc:title></dc:title>
      </cc:Work>
    </rdf:RDF>
  </metadata>
  <g
     inkscape:label="Camada 1"
     inkscape:groupmode="layer"
     id="layer1"
     transform="translate(0.162606,-12.5083)">
    <g
       id="g3050"
       transform="translate(-39.395949,-141.42136)"
       style="fill:#000000">
      <path
         style="fill:#000000;fill-opacity:1"
         d="m 99.830143,453.84256 c -27.115647,-4.06672 -48.36864,-22.63979 -57.687024,-50.4129 l -2.348627,-7 -0.280574,-121.25 -0.280575,-121.25 120.530527,0 120.53055,0 0,10.5 0,10.5 -50,0 -50,0 0,104.5 0,104.5 -10.5,0 -10.5,0 0,-104.5 0,-104.5 -49.5,0 -49.500005,0 0.01736,106.25 c 0.01911,116.95381 -0.121682,114.07675 6.167019,126.01981 6.893316,13.0913 21.314855,23.44028 35.815616,25.70149 3.87888,0.60486 31.50145,1.00964 68.5,1.00378 49.37777,-0.008 63.34813,-0.29556 68.622,-1.41343 20.2434,-4.29088 35.54239,-20.43798 39.02996,-41.19362 l 1.23804,-7.36803 10.305,0 10.30501,0 0,3.8185 c 0,14.53198 12.69898,33.48384 27.18549,40.57143 11.36636,5.56104 14.09209,5.73224 85.72312,5.38417 64.36064,-0.31274 65.69836,-0.3592 71.293,-2.4759 3.1359,-1.18646 7.68555,-3.31985 10.11037,-4.74088 6.06065,-3.55178 14.89256,-13.05688 18.22233,-19.61126 4.81792,-9.48371 5.44099,-13.7049 5.45381,-36.94929 l 0.0119,-21.50324 -57.99999,-57.99353 c -31.9,-31.89644 -58,-58.45706 -58,-59.02359 0,-0.56653 3.15537,-4.16124 7.01193,-7.98825 l 7.01193,-6.9582 61.53248,61.48502 61.53247,61.48502 -0.2944,29.5 -0.29442,29.5 -3.08529,8.61775 c -9.09706,25.40976 -31.28048,43.45238 -57.63253,46.87475 -9.8087,1.27387 -129.34001,1.24862 -138.18012,-0.0292 -8.75802,-1.26595 -19.19504,-4.88554 -26.36226,-9.14252 -5.71704,-3.39565 -18.35315,-15.04006 -21.90557,-20.18638 l -1.97807,-2.86559 -5.22449,6.56572 c -6.22476,7.82276 -15.04251,14.72395 -24.63166,19.27792 -14.80694,7.03194 -11.71121,6.78146 -86.5,6.99879 -37.125,0.10788 -70.18393,-0.20638 -73.464277,-0.69835 z m 439.130947,0.42043 c -0.36667,-0.36666 -0.66668,-5.09166 -0.66668,-10.5 l 0,-9.83333 50,0 50,0 0,-105 0,-105 10.5,0 10.5,0 0,55 0,55 49.5441,0 49.5441,0 -0.31336,-59.75 c -0.3096,-59.03283 -0.34019,-59.82105 -2.54848,-65.66927 -5.73279,-15.18218 -16.9432,-26.04181 -32.22636,-31.21797 -5.15489,-1.74588 -9.82958,-1.86276 -74.5,-1.86276 l -69,0 -6.5,2.38062 c -17.9525,6.57507 -30.08391,21.14275 -33.08156,39.72509 l -1.19284,7.39429 -10.21819,0 -10.2182,0 -0.59077,-6.32639 c -1.88565,-20.19299 -18.03417,-37.88128 -38.55446,-42.23066 -10.12199,-2.1454 -131.89313,-2.06181 -141.05091,0.0968 -13.48215,3.17797 -25.61758,12.46234 -32.04053,24.51303 -5.38865,10.11013 -6.02752,14.12316 -6.04067,37.94404 l -0.0119,21.49685 58.51096,58.51728 58.51099,58.51727 -7.522,7.4718 -7.522,7.4718 -61.54075,-61.48592 -61.54076,-61.48593 0.36489,-29.5 c 0.34096,-27.56489 0.51375,-29.92638 2.63386,-36 4.02175,-11.52132 8.83511,-18.94147 18.50173,-28.52185 10.00971,-9.9204 17.71274,-14.6113 30.60308,-18.63629 l 7.5,-2.34186 71,0 71,0 7.5,2.34186 c 12.35277,3.85714 20.64019,8.80399 29.58021,17.65678 4.44412,4.40075 8.73612,9.06931 9.53779,10.37459 l 1.45759,2.37322 5.64755,-6.98986 c 9.32002,-11.5352 21.94215,-19.74666 36.77685,-23.92556 6.02237,-1.69648 11.71722,-1.83103 77.5,-1.83103 65.559,0 71.49812,0.13922 77.5,1.81663 21.1228,5.90342 38.99476,21.2932 47.05408,40.5189 5.82317,13.89134 5.94592,15.75447 5.94592,90.25244 l 0,67.91203 -60,0 -60,0 0,50 0,50 -59.83333,0 c -32.90834,0 -60.13334,-0.3 -60.5,-0.66667 z"
         id="path3056"
         inkscape:connector-curvature="0" />
      <path
         style="fill:#000000;fill-opacity:1"
         d="m 94.294415,452.37864 c -3.575,-0.76562 -10.765221,-3.50042 -15.978268,-6.07734 -17.649481,-8.72453 -31.056077,-25.45612 -36.053253,-44.99488 -1.90398,-7.4445 -1.968479,-11.60698 -1.968479,-127.03672 l 0,-119.34004 119.500005,0 119.5,0 0,10 0,10 -49.5,0 -49.5,0 0,104.5 0,104.5 -10,0 -10,0 0,-104.5 0,-104.5 -50,0 -50.000005,0 0,107.7899 c 0,118.53275 -0.255411,113.32237 6.143528,125.32801 3.752923,7.0412 13.573415,16.69149 20.619259,20.26189 11.102711,5.62616 11.014908,5.6202 82.737218,5.6202 72.61462,0 72.00781,0.0446 83.6179,-6.14353 13.81867,-7.36527 25.8821,-26.02663 25.8821,-40.03797 l 0,-3.8185 9.86279,0 9.8628,0 1.21249,7.51612 c 3.06957,19.02819 16.26374,34.26724 34.7524,40.13848 l 7.38571,2.3454 66.71191,-0.0119 c 72.3152,-0.0129 71.46043,0.0449 83.08094,-5.61017 7.40948,-3.60576 17.06493,-13.3232 21.01672,-21.15164 5.10134,-10.10571 6.08291,-16.33734 6.09946,-38.72317 l 0.0148,-19.99682 -58.51188,-58.51818 -58.51187,-58.51818 7.02381,-6.96999 7.02381,-6.96999 61.54886,61.48502 61.54886,61.48502 -0.40308,28 c -0.32214,22.37865 -0.74258,29.18992 -2.09419,33.92701 -5.67896,19.90359 -19.83916,36.65891 -38.12431,45.11128 -13.94723,6.44715 -14.14889,6.46171 -89.5,6.46171 -75.50822,0 -75.81262,-0.0222 -89.52939,-6.52861 -11.57161,-5.48889 -20.49646,-13.19028 -28.78964,-24.84304 -1.2417,-1.74469 -1.58605,-1.52563 -5.07675,3.22966 -9.20648,12.54175 -26.15135,23.5266 -41.10422,26.64665 -10.03087,2.09303 -140.69243,2.04468 -150.500005,-0.0557 z m 444.999995,-8.44898 0,-10 50,0 50,0 0,-104.5 0,-104.5 10,0 10,0 0,54.5 0,54.5 49.5,0 49.5,0 -0.0119,-58.25 c -0.0129,-63.24063 -0.0204,-63.33863 -5.6789,-74.55621 -3.60053,-7.13774 -13.36528,-16.90249 -20.50302,-20.50302 -11.34357,-5.7221 -10.51926,-5.66601 -83.45087,-5.6789 -64.23355,-0.0113 -67.42021,0.0743 -73.5,1.97642 -17.0761,5.34233 -29.92054,18.64673 -34.32415,35.55326 -0.84212,3.23326 -1.53116,7.3591 -1.53116,9.16855 l 0,3.2899 -9.75,-0.003 -9.75,-0.003 -1.60025,-8.25385 c -0.88014,-4.53959 -2.90066,-10.90958 -4.49003,-14.1555 -5.73775,-11.718 -17.47742,-21.67139 -30.19292,-25.59881 -6.14367,-1.89759 -9.42053,-1.98524 -74.21679,-1.98524 -64.79627,0 -68.07313,0.0876 -74.2168,1.98524 -12.67588,3.91518 -23.92351,13.44579 -29.96753,25.39276 -4.6254,9.14287 -5.77875,16.72518 -5.79832,38.11885 l -0.0174,18.99685 58.7441,58.75043 58.7441,58.75043 -7.24689,7.24688 -7.24688,7.24689 -61.55874,-61.49416 -61.55874,-61.49417 0.40538,-27.5 c 0.44803,-30.39455 0.98169,-33.85255 7.17622,-46.5 8.87673,-18.12374 26.58593,-32.52412 46.15093,-37.528 7.30913,-1.86936 11.31118,-1.972 76.89052,-1.972 65.57934,0 69.58139,0.10264 76.89051,1.972 14.5544,3.72239 28.75678,13.0419 37.71779,24.75018 l 4.76219,6.22218 3.51598,-4.78972 c 9.59636,-13.07286 24.29473,-22.78289 40.31376,-26.63205 6.03228,-1.44948 14.92626,-1.5994 78.79976,-1.32824 l 72,0.30565 7.3346,2.67921 c 11.06222,4.04085 17.7898,8.44869 27.19949,17.82079 6.80838,6.78118 9.37978,10.21882 12.71623,17 7.37441,14.98819 7.21832,13.01946 7.2349,91.25 l 0.0148,69.75 -59.5,0 -59.5,0 0,50 0,50 -60,0 -60,0 0,-10 z"
         id="path3054"
         inkscape:connector-curvature="0" />
      <path
         style="fill:#000000;fill-opacity:1"
         d="M 96.294415,452.39425 C 68.0363,446.41042 45.850733,423.58185 41.352912,395.86039 40.671215,391.65888 40.306905,348.78482 40.301969,272.17966 l -0.0076,-117.25 119.500001,0 119.5,0 0,9.49067 0,9.49066 -49.75,0.25934 -49.75,0.25933 -0.25462,104.75 -0.25459,104.75 -9.49541,0 -9.49538,0 0,-105.00925 0,-105.00925 -50.25,0.25925 -50.250001,0.25925 -0.274911,103 c -0.164841,61.76059 0.111149,106.2232 0.689316,111.05029 0.530325,4.42767 1.919618,10.60381 3.087319,13.72477 4.537218,12.1268 16.179652,23.82549 28.77351,28.91253 l 5.724766,2.31241 69.983541,0.27646 c 67.45623,0.26648 70.22039,0.20453 76.54153,-1.71546 11.68008,-3.54772 22.24908,-11.8472 28.35508,-22.2663 3.22692,-5.50632 6.61985,-15.17764 6.61985,-18.86946 0,-5.66707 0.45366,-5.92524 10.41199,-5.92524 l 9.19801,0 1.23003,7.32038 c 2.69507,16.0393 12.84816,29.45433 27.96177,36.94523 l 8.54327,4.23439 64.57747,0.67489 c 35.5176,0.37118 68.19449,0.28975 72.61531,-0.18097 8.93316,-0.95119 16.58982,-3.60457 22.82598,-7.91022 6.45074,-4.45382 13.24788,-11.87799 16.55427,-18.08141 5.23772,-9.82697 6.08189,-15.1661 6.08189,-38.46562 l 0,-21.04314 -57.99999,-57.99353 c -31.9,-31.89644 -58,-58.45799 -58,-59.02566 0,-0.56766 2.93083,-3.9369 6.51298,-7.4872 l 6.51298,-6.45509 61.48702,61.48093 61.48701,61.48092 0,21.52929 c 0,24.50595 -1.09115,35.52498 -4.48691,45.31141 -3.54969,10.23004 -8.13437,17.28506 -17.01309,26.18016 -8.85113,8.86746 -16.99698,13.73933 -29.49999,17.64338 l -7.5,2.34186 -72,0 -72,0 -8,-2.72441 c -14.5505,-4.9552 -26.67647,-13.59452 -35.07326,-24.98846 l -4.21011,-5.71287 -2.60773,3.94054 c -9.24503,13.97019 -26.65566,25.17719 -44.38342,28.56907 -10.61919,2.03179 -136.55237,1.92906 -146.225481,-0.11928 z m 442.999995,-8.46459 0,-10 50,0 50,0 0,-104.5 0,-104.5 9.49146,0 9.49146,0 0.25854,54.75 0.25854,54.75 50,0 50,0 0.27327,-55 c 0.16944,-34.10114 -0.11875,-57.65985 -0.7584,-62 -1.56087,-10.59074 -7.4675,-21.85198 -15.23209,-29.04062 -7.66189,-7.09357 -17.75197,-12.05635 -27.28278,-13.41897 -9.45538,-1.35184 -125.96321,-1.34798 -134.5,0.004 -8.28875,1.31313 -19.11567,6.44734 -25.42801,12.05816 -9.13269,8.11771 -16.57199,22.93271 -16.57199,33.0023 l 0,3.89467 -9.77866,0 -9.77868,0 -1.11765,-7.09792 c -2.94481,-18.70185 -16.57816,-34.43692 -34.825,-40.19364 -6.93195,-2.18697 -7.65616,-2.20844 -74.5,-2.20844 -62.65488,0 -67.93068,0.13184 -73.5,1.83669 -13.65664,4.18049 -24.92989,13.64357 -31.00072,26.02284 -4.77905,9.74517 -5.49928,14.72506 -5.49928,38.02381 l 0,20.11036 58.51188,58.51818 58.51188,58.51818 -7.0238,6.96998 -7.0238,6.96998 -60.98808,-60.98194 -60.98808,-60.98193 0,-27.52318 c 0,-24.75354 0.20812,-28.27422 2.06826,-34.98673 3.39227,-12.24143 8.29269,-20.3896 18.40989,-30.61107 7.67162,-7.7507 10.44364,-9.81184 18.52185,-13.77203 15.63918,-7.66681 14.58361,-7.57841 90.5,-7.57841 75.8541,0 74.92502,-0.0773 90.30781,7.51547 9.78943,4.83196 20.19243,13.51365 25.67784,21.4291 1.53248,2.21138 3.06264,3.99911 3.40035,3.97271 0.33769,-0.0264 2.414,-2.56093 4.61399,-5.6323 7.50552,-10.47828 20.04905,-19.37134 34,-24.10516 l 8,-2.71455 73,0 73,0 8,2.71455 c 19.14087,6.49486 32.90308,18.53901 41.46145,36.28545 7.07752,14.67579 7.03855,14.1722 7.03855,90.94741 l 0,68.55259 -60,0 -60,0 0,50 0,50 -59.5,0 -59.5,0 0,-10 z"
         id="path3052"
         inkscape:connector-curvature="0" />
    </g>
  </g>
</svg>
